<svg xmlns="http://www.w3.org/2000/svg" version="1.1" xmlns:xlink="http://www.w3.org/1999/xlink" width="420" height="500"><svg xmlns="http://www.w3.org/2000/svg" version="1.1" xmlns:xlink="http://www.w3.org/1999/xlink" width="420" height="500"><svg xmlns="http://www.w3.org/2000/svg" viewBox="0 0 420 500">
	<defs>
		<linearGradient id="grad" x1="0" x2="1.1" y1="0" y2="0.3" gradientTransform="rotate(-43)">
        <stop offset="0%" stop-color="#317bcf"></stop>
        <stop offset="100%" stop-color="#74e682"></stop>
      </linearGradient>
	</defs>
	<path fill="url(#grad)" d="M356.849 497.839c-.465-1.213-6.176-96.358-6.18-102.958 0-1.677-.275-3.048-.61-3.047-.336.001-5.914 4.25-12.397 9.443-6.483 5.192-13.838 11.025-16.345 12.962l-4.558 3.522-3.046-11.135c-1.676-6.125-3.307-11.417-3.626-11.76-.32-.344-5.127 1.534-10.685 4.173-47.918 22.75-103.233 26.578-153.2 10.604-32.3-10.326-59.509-26.678-83.566-50.22-34.05-33.32-55.264-76.155-61.649-124.475-1.316-9.962-1.316-40.44 0-50.398 2.672-20.205 8.63-41.835 16.311-59.21 20.02-45.288 55.29-82.004 99.67-103.754 14.711-7.21 24.967-11.06 39.018-14.643 36.295-9.257 70.19-9.257 106.486 0 27.629 7.047 55.674 21.271 78.848 39.99 9.765 7.889 25.686 24.054 33.062 33.57 12.762 16.465 25.015 38.434 31.964 57.307 7.906 21.472 12.603 48.282 12.603 71.94 0 33.08-7.683 65.022-22.827 94.902-3.455 6.818-6.184 12.396-6.064 12.396.12 0 6.363-2.94 13.872-6.536 7.568-3.623 13.963-6.226 14.348-5.84.56.56-17.473 60.306-56.3 186.534-2.354 7.65-3.948 9.712-5.129 6.633zM237.01 346.383c11.373-2.467 21.728-6.022 32.25-11.071 9.186-4.408 22.068-12.315 22.068-13.545 0-.355-4.206-16.856-9.348-36.67-5.141-19.814-9.348-36.276-9.348-36.584 0-2.024 3.537 2.364 21.215 26.328l19.835 26.886 3.092-3.516c8.76-9.964 20.028-30.38 24.82-44.973 5.081-15.469 6.229-23.407 6.229-43.082 0-15.317-.262-19.173-1.824-26.871-10.107-49.818-45.858-90.334-93.452-105.907-15.752-5.154-23.173-6.22-43.318-6.22-16.14 0-19.341.225-27.232 1.915-49.898 10.69-89.819 46.145-105.23 93.46-5.208 15.988-6.083 22.204-6.083 43.216 0 16.714.226 20.136 1.805 27.365 2.825 12.93 6.225 22.499 12.372 34.82 7.345 14.724 14.437 24.58 26.02 36.163 21.12 21.12 47.53 34.657 76.91 39.423 10.9 1.767 38.799 1.123 49.22-1.137z"></path></svg></svg><style>@media (prefers-color-scheme: light) { :root { filter: none; } }
@media (prefers-color-scheme: dark) { :root { filter: none; } }
</style></svg>